<svg width="27" height="33" viewBox="0 0 27 33" fill="none" xmlns="http://www.w3.org/2000/svg">
<path d="M6.13645 0C5.81096 0 5.4988 0.149718 5.26864 0.416217C5.03848 0.682716 4.90918 1.04417 4.90918 1.42105V4.26316C4.90918 4.64004 5.03848 5.00149 5.26864 5.26799C5.4988 5.53449 5.81096 5.68421 6.13645 5.68421C6.46195 5.68421 6.77411 5.53449 7.00427 5.26799C7.23442 5.00149 7.36373 4.64004 7.36373 4.26316V1.42105C7.36373 1.04417 7.23442 0.682716 7.00427 0.416217C6.77411 0.149718 6.46195 0 6.13645 0Z" fill="#707070"/>
<path fill-rule="evenodd" clip-rule="evenodd" d="M14.7273 33C16.4675 32.9997 18.1515 32.286 19.4807 30.9855C20.8099 29.6849 21.6985 27.8814 21.989 25.8947H22.0909C23.3929 25.8947 24.6415 25.2958 25.5622 24.2298C26.4828 23.1638 27 21.718 27 20.2105C27 18.7029 26.4828 17.2571 25.5622 16.1911C24.6415 15.1251 23.3929 14.5263 22.0909 14.5263V13.1052H0V24.4736C0 26.735 0.775809 28.9037 2.15676 30.5027C3.53771 32.1017 5.41068 33 7.36364 33H14.7273ZM2.45455 15.9473V24.4736C2.45455 25.9812 2.97175 27.427 3.89238 28.493C4.81302 29.559 6.06166 30.1579 7.36364 30.1579H14.7273C16.0292 30.1579 17.2779 29.559 18.1985 28.493C19.1192 27.427 19.6364 25.9812 19.6364 24.4736V15.9473H2.45455ZM24.5455 20.2105C24.5455 20.9643 24.2869 21.6872 23.8265 22.2202C23.3662 22.7532 22.7419 23.0526 22.0909 23.0526V17.3684C22.7419 17.3684 23.3662 17.6678 23.8265 18.2008C24.2869 18.7338 24.5455 19.4567 24.5455 20.2105Z" fill="#707070"/>
<path d="M9.81836 7.42105C9.81836 7.04417 9.94766 6.68272 10.1778 6.41622C10.408 6.14972 10.7201 6 11.0456 6C11.3711 6 11.6833 6.14972 11.9134 6.41622C12.1436 6.68272 12.2729 7.04417 12.2729 7.42105V10.2632C12.2729 10.64 12.1436 11.0015 11.9134 11.268C11.6833 11.5345 11.3711 11.6842 11.0456 11.6842C10.7201 11.6842 10.408 11.5345 10.1778 11.268C9.94766 11.0015 9.81836 10.64 9.81836 10.2632V7.42105ZM15.9547 6C15.6292 6 15.3171 6.14972 15.0869 6.41622C14.8568 6.68272 14.7274 7.04417 14.7274 7.42105V10.2632C14.7274 10.64 14.8568 11.0015 15.0869 11.268C15.3171 11.5345 15.6292 11.6842 15.9547 11.6842C16.2802 11.6842 16.5924 11.5345 16.8225 11.268C17.0527 11.0015 17.182 10.64 17.182 10.2632V7.42105C17.182 7.04417 17.0527 6.68272 16.8225 6.41622C16.5924 6.14972 16.2802 6 15.9547 6Z" fill="#707070"/>
</svg>
