<svg width="29" height="29" viewBox="0 0 29 29" fill="none" xmlns="http://www.w3.org/2000/svg">
<path d="M27 24.2588V15.0304C27 14.2868 26.8467 13.551 26.5494 12.8676C26.2522 12.1843 25.8171 11.5678 25.2708 11.0556L16.4139 2.75384C15.8976 2.26986 15.2128 2 14.5007 2C13.7886 2 13.1037 2.26986 12.5875 2.75384L3.72917 11.0556C3.18285 11.5678 2.74783 12.1843 2.45056 12.8676C2.15329 13.551 2 14.2868 2 15.0304V24.2588C2 24.9858 2.29266 25.683 2.81359 26.1971C3.33453 26.7112 4.04107 27 4.77778 27H24.2222C24.9589 27 25.6655 26.7112 26.1864 26.1971C26.7073 25.683 27 24.9858 27 24.2588Z" stroke="#707070" stroke-width="2.5" stroke-linecap="round" stroke-linejoin="round"/>
<path d="M10.3333 18.7764C10.3333 18.0494 10.6259 17.3521 11.1468 16.838C11.6678 16.324 12.3743 16.0352 13.111 16.0352H15.8888C16.6255 16.0352 17.3321 16.324 17.853 16.838C18.3739 17.3521 18.6666 18.0494 18.6666 18.7764V27.0001H10.3333V18.7764Z" stroke="#707070" stroke-width="2.5" stroke-linecap="round" stroke-linejoin="round"/>
</svg>
