<svg width="27" height="27" viewBox="0 0 27 27" fill="none" xmlns="http://www.w3.org/2000/svg">
<path d="M12.2058 23.9614C12.1244 24.2707 12.0634 24.584 12.0227 24.9014C11.982 25.2188 11.9535 25.5443 11.9373 25.8779C10.8956 25.7559 9.9028 25.5117 8.95881 25.1455C8.01482 24.7793 7.14 24.3114 6.33435 23.7417C5.52871 23.172 4.7963 22.5129 4.13714 21.7642C3.47797 21.0155 2.91646 20.2017 2.4526 19.3228C1.98875 18.4438 1.63068 17.5161 1.37841 16.5396C1.12614 15.563 1 14.5498 1 13.5C1 12.3525 1.14648 11.2458 1.43944 10.1797C1.73241 9.11361 2.1515 8.1167 2.69674 7.18896C3.24198 6.26123 3.893 5.41895 4.64982 4.66211C5.40664 3.90527 6.25298 3.25423 7.18883 2.70898C8.12468 2.16374 9.1175 1.74463 10.1673 1.45166C11.2171 1.15869 12.3279 1.00814 13.4997 1C14.6472 1 15.7498 1.14648 16.8078 1.43945C17.8657 1.73242 18.8626 2.1556 19.7984 2.70898C20.7343 3.26237 21.5765 3.91341 22.3252 4.66211C23.0739 5.41081 23.729 6.25716 24.2905 7.20117C24.852 8.14518 25.2711 9.13802 25.5478 10.1797C25.8245 11.2214 25.975 12.3281 25.9994 13.5H25.1328C25.0188 13.3128 24.9008 13.1297 24.7788 12.9507C24.6567 12.7716 24.5143 12.6007 24.3515 12.438C24.3027 11.73 24.1766 11.0423 23.9731 10.375H9.01984C8.95474 10.8958 8.90591 11.4126 8.87336 11.9253C8.84081 12.438 8.82046 12.9629 8.81233 13.5C8.81233 14.029 8.8286 14.5498 8.86115 15.0625C8.8937 15.5752 8.9466 16.096 9.01984 16.625H13.4997C13.4997 16.8854 13.5201 17.1458 13.5608 17.4062C13.6014 17.6667 13.6543 17.9271 13.7194 18.1875H9.28839C9.38604 18.6514 9.51625 19.16 9.67901 19.7134C9.84176 20.2668 10.0452 20.8079 10.2893 21.3369C10.5335 21.8659 10.8142 22.3623 11.1316 22.8262C11.449 23.29 11.8071 23.6685 12.2058 23.9614ZM23.375 8.8125C23.0576 8.15332 22.6833 7.53483 22.252 6.95703C21.8207 6.37923 21.3324 5.85026 20.7872 5.37012C20.2419 4.88997 19.6641 4.46273 19.0538 4.08838C18.4435 3.71403 17.7843 3.40885 17.0763 3.17285C17.3693 3.57975 17.6297 4.01107 17.8575 4.4668C18.0854 4.92253 18.2929 5.39046 18.4801 5.87061C18.6673 6.35075 18.8259 6.83903 18.9561 7.33545C19.0863 7.83187 19.2003 8.32422 19.2979 8.8125H23.375ZM13.4997 2.5625C13.0928 2.5625 12.7185 2.67236 12.3767 2.89209C12.0349 3.11182 11.7175 3.40072 11.4246 3.75879C11.1316 4.11686 10.8712 4.51969 10.6433 4.96729C10.4155 5.41488 10.208 5.87467 10.0208 6.34668C9.83363 6.81869 9.68308 7.26628 9.56915 7.68945C9.45522 8.11263 9.36163 8.48698 9.28839 8.8125H17.7111C17.646 8.49512 17.5524 8.12077 17.4303 7.68945C17.3082 7.25814 17.1577 6.81055 16.9786 6.34668C16.7996 5.88281 16.5962 5.42708 16.3683 4.97949C16.1405 4.5319 15.88 4.125 15.5871 3.75879C15.2941 3.39258 14.9727 3.10368 14.6227 2.89209C14.2728 2.6805 13.8985 2.57064 13.4997 2.5625ZM9.93535 3.16064C9.24363 3.39665 8.58447 3.69775 7.95785 4.06396C7.33124 4.43018 6.74938 4.85742 6.21229 5.3457C5.67519 5.83398 5.18692 6.36702 4.74748 6.94482C4.30803 7.52262 3.93369 8.14518 3.62445 8.8125H7.70151C7.79103 8.36491 7.90089 7.88883 8.03109 7.38428C8.1613 6.87972 8.32406 6.37516 8.51936 5.87061C8.71467 5.36605 8.92626 4.88184 9.15412 4.41797C9.38198 3.9541 9.64239 3.53499 9.93535 3.16064ZM2.56247 13.5C2.56247 14.5824 2.71302 15.624 3.01412 16.625H7.44517C7.38007 16.1042 7.33124 15.5874 7.29869 15.0747C7.26614 14.562 7.24986 14.0371 7.24986 13.5C7.24986 12.971 7.26614 12.4502 7.29869 11.9375C7.33124 11.4248 7.38007 10.904 7.44517 10.375H3.01412C2.71302 11.376 2.56247 12.4176 2.56247 13.5ZM3.60004 18.1875C3.91742 18.8467 4.29176 19.4652 4.72306 20.043C5.15437 20.6208 5.64264 21.1538 6.18787 21.6421C6.73311 22.1304 7.31903 22.5535 7.94565 22.9116C8.57226 23.2697 9.23143 23.5749 9.92314 23.8271C9.63018 23.4202 9.36977 22.9889 9.14191 22.5332C8.91405 22.0775 8.70653 21.6095 8.51936 21.1294C8.33219 20.6493 8.17351 20.161 8.0433 19.6646C7.91309 19.1681 7.7951 18.6758 7.6893 18.1875H3.60004ZM22.5083 20.397C23.0373 20.6655 23.5174 20.9951 23.9487 21.3857C24.38 21.7764 24.7462 22.2158 25.0473 22.7041C25.3484 23.1924 25.5844 23.7132 25.7553 24.2666C25.9262 24.82 26.0076 25.3978 25.9994 26H24.437C24.437 25.3571 24.3149 24.7508 24.0708 24.1812C23.8266 23.6115 23.493 23.1151 23.0698 22.6919C22.6467 22.2687 22.1462 21.931 21.5684 21.6787C20.9906 21.4264 20.3843 21.3044 19.7496 21.3125C19.0986 21.3125 18.4923 21.4346 17.9308 21.6787C17.3693 21.9229 16.8729 22.2565 16.4416 22.6797C16.0102 23.1029 15.6725 23.6034 15.4284 24.1812C15.1843 24.759 15.0622 25.3652 15.0622 26H13.4997C13.4997 25.4059 13.5811 24.8322 13.7439 24.2788C13.9066 23.7254 14.1385 23.2005 14.4396 22.7041C14.7407 22.2077 15.1069 21.7682 15.5383 21.3857C15.9696 21.0033 16.4497 20.6737 16.9786 20.397C16.3683 19.9575 15.8963 19.4082 15.5627 18.749C15.229 18.0898 15.0622 17.3818 15.0622 16.625C15.0622 15.9821 15.1843 15.3758 15.4284 14.8062C15.6725 14.2365 16.0062 13.7401 16.4293 13.3169C16.8525 12.8937 17.3489 12.556 17.9186 12.3037C18.4882 12.0514 19.0986 11.9294 19.7496 11.9375C20.3925 11.9375 20.9987 12.0596 21.5684 12.3037C22.138 12.5479 22.6344 12.8815 23.0576 13.3047C23.4808 13.7279 23.8185 14.2284 24.0708 14.8062C24.323 15.384 24.4451 15.9902 24.437 16.625C24.437 17.3737 24.2702 18.0776 23.9365 18.7368C23.6029 19.396 23.1268 19.9494 22.5083 20.397ZM19.7496 19.75C20.1809 19.75 20.5837 19.6686 20.9581 19.5059C21.3324 19.3431 21.666 19.1193 21.959 18.8345C22.252 18.5496 22.4758 18.2201 22.6304 17.8457C22.785 17.4714 22.8664 17.0645 22.8745 16.625C22.8745 16.1937 22.7931 15.7909 22.6304 15.4165C22.4676 15.0422 22.2438 14.7085 21.959 14.4155C21.6742 14.1226 21.3446 13.8988 20.9703 13.7441C20.5959 13.5895 20.189 13.5081 19.7496 13.5C19.3183 13.5 18.9155 13.5814 18.5411 13.7441C18.1668 13.9069 17.8331 14.1307 17.5402 14.4155C17.2472 14.7004 17.0234 15.0299 16.8688 15.4043C16.7142 15.7786 16.6328 16.1855 16.6247 16.625C16.6247 17.0563 16.706 17.4591 16.8688 17.8335C17.0315 18.2078 17.2553 18.5415 17.5402 18.8345C17.825 19.1274 18.1546 19.3512 18.5289 19.5059C18.9032 19.6605 19.3101 19.7419 19.7496 19.75Z" fill="#707070" stroke="#707070"/>
</svg>
