<svg width="24" height="24" viewBox="0 0 24 24" fill="none" xmlns="http://www.w3.org/2000/svg">
<g clip-path="url(#clip0_24_3)">
<path d="M10.5366 19.4268C10.5366 20.2518 11.2116 20.9268 12.0366 20.9268C12.8616 20.9268 13.5366 20.2518 13.5366 19.4268C13.5366 18.6018 12.8616 17.9268 12.0366 17.9268C11.2116 17.9268 10.5366 18.6018 10.5366 19.4268ZM10.5366 4.42682C10.5366 5.25182 11.2116 5.92682 12.0366 5.92682C12.8616 5.92682 13.5366 5.25182 13.5366 4.42682C13.5366 3.60182 12.8616 2.92682 12.0366 2.92682C11.2116 2.92682 10.5366 3.60182 10.5366 4.42682ZM10.5366 11.9268C10.5366 12.7518 11.2116 13.4268 12.0366 13.4268C12.8616 13.4268 13.5366 12.7518 13.5366 11.9268C13.5366 11.1018 12.8616 10.4268 12.0366 10.4268C11.2116 10.4268 10.5366 11.1018 10.5366 11.9268Z" fill="#999999"/>
</g>
<defs>
<clipPath id="clip0_24_3">
<rect width="24" height="24" fill="white" transform="translate(0 24) rotate(-90)"/>
</clipPath>
</defs>
</svg>
