<svg width="60" height="59" viewBox="0 0 60 59" fill="none" xmlns="http://www.w3.org/2000/svg">
<path fill-rule="evenodd" clip-rule="evenodd" d="M30 56.9999C44.9115 56.9999 57 44.9114 57 29.9999C57 15.0885 44.9115 2.99999 30 2.99999C15.0885 2.99999 3 15.0885 3 29.9999C3 44.9114 15.0885 56.9999 30 56.9999ZM30 59.9999C46.569 59.9999 60 46.5689 60 29.9999C60 13.431 46.569 0 30 0C13.431 0 0 13.431 0 29.9999C0 46.5689 13.431 59.9999 30 59.9999Z" fill="#707070"/>
<path d="M12 47.4449C12 45.8954 13.158 44.5859 14.7 44.4149C26.2725 43.1339 33.78 43.2494 45.327 44.4434C45.9036 44.504 46.4501 44.7311 46.8998 45.0971C47.3494 45.4632 47.6827 45.9522 47.859 46.5046C48.0352 47.0569 48.0468 47.6486 47.8923 48.2075C47.7378 48.7663 47.4239 49.268 46.989 49.6514C33.3615 61.5299 25.5735 61.3664 12.96 49.6634C12.345 49.0934 12 48.2834 12 47.4464V47.4449Z" fill="#707070"/>
<path fill-rule="evenodd" clip-rule="evenodd" d="M45.1725 45.9343C33.717 44.7493 26.3175 44.6383 14.8635 45.9058C14.4865 45.9498 14.1389 46.1312 13.8873 46.4155C13.6357 46.6997 13.4978 47.0668 13.5 47.4463C13.5 47.8753 13.6785 48.2818 13.98 48.5638C20.232 54.3628 24.969 56.9833 29.5995 56.9998C34.2465 57.0163 39.2385 54.4168 46.0035 48.5218C46.2184 48.3305 46.3731 48.0809 46.4489 47.8034C46.5246 47.5258 46.518 47.2322 46.43 46.9583C46.342 46.6844 46.1763 46.4419 45.953 46.2604C45.7298 46.0789 45.4586 45.9661 45.1725 45.9358V45.9343ZM14.535 42.9239C26.229 41.6294 33.846 41.7464 45.483 42.9508C46.3505 43.0414 47.1727 43.3829 47.8491 43.9335C48.5254 44.4842 49.0265 45.2201 49.2911 46.0512C49.5556 46.8822 49.5721 47.7724 49.3386 48.6127C49.105 49.453 48.6315 50.207 47.976 50.7823C41.1135 56.7643 35.3985 60.0223 29.5905 59.9998C23.766 59.9788 18.303 56.6653 11.9415 50.7628C11.486 50.3386 11.1229 49.825 10.8749 49.2541C10.6269 48.6832 10.4993 48.0673 10.5 47.4448C10.4978 46.3265 10.9083 45.2466 11.6529 44.4121C12.3974 43.5777 13.4236 43.0472 14.535 42.9224V42.9239Z" fill="#707070"/>
<path d="M42 24C42 27.1826 40.7357 30.2348 38.4853 32.4852C36.2348 34.7357 33.1826 36 30 36C26.8174 36 23.7652 34.7357 21.5147 32.4852C19.2643 30.2348 18 27.1826 18 24C18 20.8174 19.2643 17.7651 21.5147 15.5147C23.7652 13.2643 26.8174 12 30 12C33.1826 12 36.2348 13.2643 38.4853 15.5147C40.7357 17.7651 42 20.8174 42 24V24Z" fill="#707070"/>
<path fill-rule="evenodd" clip-rule="evenodd" d="M30 33C32.3869 33 34.6761 32.0518 36.364 30.3639C38.0518 28.6761 39 26.3869 39 24C39 21.613 38.0518 19.3239 36.364 17.636C34.6761 15.9482 32.3869 15 30 15C27.6131 15 25.3239 15.9482 23.636 17.636C21.9482 19.3239 21 21.613 21 24C21 26.3869 21.9482 28.6761 23.636 30.3639C25.3239 32.0518 27.6131 33 30 33V33ZM30 36C33.1826 36 36.2348 34.7357 38.4853 32.4852C40.7357 30.2348 42 27.1826 42 24C42 20.8174 40.7357 17.7651 38.4853 15.5147C36.2348 13.2643 33.1826 12 30 12C26.8174 12 23.7652 13.2643 21.5147 15.5147C19.2643 17.7651 18 20.8174 18 24C18 27.1826 19.2643 30.2348 21.5147 32.4852C23.7652 34.7357 26.8174 36 30 36V36Z" fill="#707070"/>
</svg>
