<svg width="29" height="29" viewBox="0 0 29 29" fill="none" xmlns="http://www.w3.org/2000/svg">
<path d="M14.5 0.75C6.91825 0.75 0.75 6.91825 0.75 14.5C0.75 22.0817 6.91825 28.25 14.5 28.25C22.0817 28.25 28.25 22.0817 28.25 14.5C28.25 6.91825 22.0817 0.75 14.5 0.75ZM14.5 25.5C8.43488 25.5 3.5 20.5651 3.5 14.5C3.5 8.43488 8.43488 3.5 14.5 3.5C20.5651 3.5 25.5 8.43488 25.5 14.5C25.5 20.5651 20.5651 25.5 14.5 25.5Z" fill="#707070"/>
<path d="M15.875 7.625H13.125V15.875H21.375V13.125H15.875V7.625Z" fill="#707070"/>
</svg>
