<svg width="28" height="28" viewBox="0 0 28 28" fill="none" xmlns="http://www.w3.org/2000/svg">
<path d="M25.2 5.89474H21V2.94737C21 1.31158 19.754 0 18.2 0H9.8C8.246 0 7 1.31158 7 2.94737V5.89474H2.8C1.246 5.89474 0 7.20632 0 8.8421V25.0526C0 26.6884 1.246 28 2.8 28H25.2C26.754 28 28 26.6884 28 25.0526V8.8421C28 7.20632 26.754 5.89474 25.2 5.89474ZM9.8 2.94737H18.2V5.89474H9.8V2.94737ZM25.2 25.0526H2.8V22.1053H25.2V25.0526ZM25.2 17.6842H2.8V8.8421H7V11.7895H9.8V8.8421H18.2V11.7895H21V8.8421H25.2V17.6842Z" fill="#707070"/>
</svg>
